<svg
    width="135"
    height="40"
    viewBox="0 0 135 40"
    fill="none"
    xmlns="http://www.w3.org/2000/svg"
    className="h-12 w-auto"
>
    <rect width="135" height="40" rx="5" fill="black" />
    <g fill="white">
        <path d="M42.133 11.826C43.333 11.826 44.623 12.66 45.23 13.753C44.376 14.253 43.743 15.186 43.743 16.226C43.743 17.48 44.643 18.44 45.83 18.44C46.01 18.44 46.183 18.413 46.356 18.36C46.53 19.58 45.73 20.82 44.597 20.82C43.397 20.82 42.21 19.966 41.543 18.82C40.823 17.58 40.437 15.82 40.863 14.16C41.203 12.833 42.023 12.08 42.133 11.826ZM44.31 8.15C44.737 7.64 45.063 7.066 45.277 6.466C44.077 6.38 42.763 7.02 42.103 8.073C40.65 10.38 41.65 13.633 43.397 15.286C43.183 14.066 43.437 12.753 44.51 11.746C44.543 11.72 44.57 11.693 44.597 11.666C44.737 11.526 44.877 11.386 45.01 11.233C44.156 10.593 43.91 9.366 44.31 8.15Z" />
        <path d="M49.406 2.48C50.526 2.48 51.526 3.3 51.966 4.32C52.146 4.72 52.286 5.14 52.346 5.58C52.566 7.08 51.726 8.48 50.366 9.02C49.526 9.36 48.566 9.2 47.786 8.64C45.646 7.16 45.306 4.12 46.946 2.3C47.726 1.44 48.786 1 49.946 1C49.806 1.52 49.546 2.02 49.406 2.48Z" />
        <path d="M38.999 18.414C38.599 18.307 37.879 18.067 37.239 18.067C36.599 18.067 35.919 18.34 35.459 18.767C34.489 19.667 34.339 21.067 35.239 22.227C35.719 22.827 36.499 23.307 37.399 23.4C37.799 23.48 38.539 23.667 39.139 23.667C39.739 23.667 40.359 23.427 40.859 23.04C41.079 22.887 41.299 22.727 41.479 22.547C40.579 21.667 40.459 20.347 41.299 19.267C41.859 18.527 42.739 18.067 43.699 18.067C44.119 18.067 44.379 18.147 44.559 18.227C44.339 17.027 43.499 16.147 42.379 16.147C41.219 16.147 40.219 16.947 39.759 17.907C39.539 18.107 39.319 18.267 39.099 18.414H38.999Z" />
    </g>
    <text x="60" y="16" font-family="Arial, sans-serif" font-size="8" fill="white" font-weight="normal">Download on the</text>
    <text x="60" y="30" font-family="Arial, sans-serif" font-size="14" fill="white" font-weight="bold">App Store</text>
</svg>
