<svg width="135" height="40" viewBox="0 0 135 40" fill="none" xmlns="http://www.w3.org/2000/svg">
<rect width="135" height="40" rx="5" fill="black"/>
<path d="M10.8359 20.201C10.8359 18.0689 12.5022 16.2738 14.6199 16.1425C16.7376 16.0112 18.5779 17.5134 18.9959 19.4678C19.0763 19.8329 19.1165 20.2117 19.1165 20.6121C19.1165 23.4735 16.8503 25.6881 14.1878 25.6881C12.4917 25.6881 10.8359 24.321 10.8359 22.5015C10.8359 20.895 12.2854 19.6464 14.0331 19.5151C14.2854 19.4901 14.524 19.4901 14.737 19.5151C14.6309 19.2263 14.4945 19.0049 14.232 18.847C13.6851 18.5202 12.8729 18.3568 12.0295 18.6836H11.8545L10.8359 20.201Z" fill="currentColor" fill-opacity="0.6"/>
<path d="M9.1326 20.6558C9.2884 17.7126 11.5304 15.352 14.6309 15.1986C17.8232 15.0202 20.1768 17.2949 20.1768 20.3592C20.1768 21.9793 19.1934 23.3083 17.8232 23.9928C17.468 24.1685 17.0994 24.3061 16.7171 24.3856C15.4218 24.6931 14.0331 25.603 14.0331 27.1895C14.0331 28.776 15.2818 29.9865 16.8066 29.9865C18.3315 29.9865 19.3812 28.8778 19.5564 27.4262C19.5966 27.1374 19.6368 26.8349 19.6368 26.5181C19.6368 23.4735 17.4144 21.2238 14.6851 21.3995C11.3757 21.5779 9.1326 23.8663 9.1326 26.9442C9.1326 28.5643 9.77348 29.8933 10.7956 30.5779C11.1508 30.7536 11.5193 30.8912 11.9017 30.9707C13.197 31.2782 14.5856 32.1881 14.5856 33.7746C14.5856 35.3611 13.3369 36.5716 11.8122 36.5716C10.2873 36.5716 9.23757 35.4629 9.06243 34.0113C9.02221 33.7225 8.99589 33.4199 8.99589 33.1031C8.99589 30.0585 11.2182 27.8088 13.9475 27.9845C17.7072 28.1629 20.1768 25.8609 20.1768 22.7552C20.1768 21.1351 19.1934 19.8061 17.8232 19.1216C17.468 18.9459 17.0994 18.8082 16.7171 18.7287C15.4218 18.4212 14.0331 17.5113 14.0331 15.9248C14.0331 14.3383 15.2818 13.1278 16.8066 13.1278C18.3315 13.1278 19.3812 14.2365 19.5564 15.6881C19.5966 15.9769 19.6368 16.2795 19.6368 16.5963C19.6368 16.6074 19.6368 16.6297 19.6368 16.6435C19.6368 16.9603 19.5834 17.2629 19.5031 17.5517C18.9105 20.3019 16.5782 22.383 14.0331 22.383C10.5967 22.383 8.35359 19.9865 8.52873 17.1593C8.52873 17.1343 8.52873 17.1186 8.52873 17.0911C8.52873 16.6906 8.58232 16.3019 8.67956 15.9395C9.28595 13.4851 11.6961 11.5908 14.9337 11.5908C17.9779 11.5908 20.3182 13.5173 20.2182 16.5518C20.2182 16.5629 20.2182 16.5755 20.2182 16.5963C20.2182 16.9131 20.1648 17.2275 20.0844 17.5267H20.2182L20.2584 16.5963V16.5518L20.2182 16.5963H20.2584V16.6435L20.2182 16.5963V16.5518L20.2584 16.5963V16.5518C20.2584 16.5518 20.2584 16.5518 20.2584 16.5518C20.2584 13.2384 17.5856 10.9774 14.5856 10.9774C11.5856 10.9774 8.79558 13.5554 9.42541 16.8922V16.9535L9.40092 16.9034L9.42541 16.9535V20.6558Z" fill="currentColor"/>
<path d="M26.2559 17.4339C28.3889 17.4339 30.5812 18.8953 31.578 20.6559C30.2227 21.4678 29.173 23.0878 29.173 24.873C29.173 26.967 31.0265 28.6015 33.146 28.6015C33.4586 28.6015 33.758 28.5514 34.0442 28.4764C34.5039 30.6811 32.7425 32.6736 30.7368 32.6736C28.4707 32.6736 26.4111 30.9391 25.321 29.0246C24.1553 26.9427 23.553 24.0813 24.183 21.2827C24.7171 19.1643 26.0464 17.9798 26.2559 17.4339ZM30.0884 11.7581C30.7516 10.9324 31.2586 10.0225 31.5912 9.17117C29.7978 9.04258 27.6055 10.0361 26.5414 11.6226C24.011 15.0125 25.6464 19.822 28.4707 22.0995C28.0908 20.3019 28.4972 18.5925 30.0464 17.2608C30.0917 17.2227 30.1321 17.1846 30.1724 17.1328C30.3956 16.9081 30.6188 16.6806 30.8287 16.4253C29.2818 15.4887 28.9017 13.4189 29.5442 11.7201L30.0884 11.7581Z" fill="currentColor"/>
<path d="M22.0884 28.5514C21.4641 28.373 20.3149 27.9725 19.2652 27.9725C18.2155 27.9725 17.1105 28.3979 16.4088 29.0443C14.884 30.4959 14.6317 32.7325 16.0331 34.4221C16.7348 35.2478 17.9558 35.9734 19.4696 36.1047C20.0939 36.236 21.2831 36.5849 22.2597 36.5849C23.2363 36.5849 24.2762 36.1623 25.0773 35.5909C25.4326 35.3356 25.7724 35.0568 26.0464 34.7438C24.3762 33.4012 24.1663 31.4217 25.7597 29.8017C26.6851 28.825 28.0144 27.9725 29.6298 27.9725C30.293 27.9725 30.7083 28.0984 31.0088 28.2297C30.6022 26.025 29.011 24.6209 27.2265 24.6209C25.3193 24.6209 23.6939 25.923 23.0088 27.4262C22.6685 27.715 22.3133 27.9425 22.0884 28.1629V28.5514Z" fill="currentColor"/>
<path d="M13.4144 2.30276C15.0387 2.30276 16.8923 3.73814 17.5856 5.3712C17.8812 6.1368 18.0912 7.00938 18.1713 7.82121C18.5202 10.0259 17.0691 12.3143 14.9362 13.0649C13.6288 13.5684 12.0663 13.2796 11.0022 12.3833C7.57821 9.80525 7.05359 5.86016 9.60221 2.05247C10.9193 0.655385 12.925 0 14.2807 0C14.0411 0.811831 13.6724 1.57745 13.4144 2.30276Z" fill="currentColor"/>
</svg>
